<?xml version="1.0" standalone="no"?>
<!DOCTYPE svg PUBLIC "-//W3C//DTD SVG 20010904//EN"
 "http://www.w3.org/TR/2001/REC-SVG-20010904/DTD/svg10.dtd">
<svg version="1.0" xmlns="http://www.w3.org/2000/svg"
 width="500.000000pt" height="500.000000pt" viewBox="0 0 500.000000 500.000000"
 preserveAspectRatio="xMidYMid meet">

<g transform="translate(0.000000,500.000000) scale(0.100000,-0.100000)"
fill="#000000" stroke="none">
<path d="M3533 2935 c-211 -59 -346 -234 -330 -425 5 -65 5 -67 -23 -83 -15
-9 -37 -17 -47 -17 -36 0 -109 -30 -146 -61 -59 -49 -91 -112 -93 -187 -2 -53
-7 -69 -27 -91 -61 -65 -73 -145 -34 -221 41 -82 128 -120 273 -120 50 0 64
-3 64 -15 0 -8 -6 -12 -14 -9 -8 3 -20 -1 -27 -9 -12 -13 -16 -13 -32 1 -14
13 -22 14 -37 5 -14 -10 -19 -9 -24 2 -7 20 -45 19 -52 0 -4 -10 -13 -13 -24
-10 -11 4 -22 0 -28 -10 -8 -15 -10 -15 -21 -1 -8 9 -27 16 -43 16 -26 0 -29
2 -18 15 18 21 5 45 -25 45 -19 0 -26 5 -24 18 4 39 -2 53 -28 63 -19 7 -35 7
-50 0 -19 -9 -27 -7 -43 9 -11 11 -31 20 -44 20 -24 0 -56 -23 -56 -40 0 -5
-14 -7 -31 -3 -25 5 -31 2 -36 -15 -4 -17 -11 -20 -33 -16 -15 4 -38 1 -50 -6
-18 -9 -21 -19 -18 -46 3 -26 0 -35 -14 -40 -20 -6 -24 -39 -7 -50 8 -4 2 -12
-15 -21 -33 -17 -36 -66 -6 -85 11 -7 20 -18 20 -25 0 -10 46 -13 198 -14 903
-6 1199 -6 1410 0 l243 6 17 28 c13 20 14 31 6 44 -9 14 -6 21 10 34 17 14 19
21 11 45 -8 22 -18 30 -42 34 -25 4 -30 8 -24 19 14 22 1 41 -29 41 -24 0 -27
3 -22 25 2 14 -1 32 -8 40 -14 17 -76 20 -85 5 -4 -6 -15 0 -27 15 -10 14 -30
25 -42 25 -25 0 -56 -28 -56 -50 0 -11 -3 -11 -12 -2 -18 18 -49 14 -55 -7 -4
-16 -12 -19 -45 -16 -22 1 -45 8 -51 14 -15 15 -50 14 -65 -1 -9 -9 -12 -3
-12 29 l0 41 148 4 c134 3 152 5 203 29 76 36 133 89 165 155 23 47 26 63 22
136 -4 97 -23 144 -84 205 l-42 41 0 84 c0 59 -5 98 -20 135 -43 112 -142 208
-261 254 -73 28 -233 35 -308 14z m218 -49 c133 -29 236 -105 287 -214 24 -51
27 -68 26 -158 l-1 -101 29 -19 c93 -61 133 -194 87 -294 -54 -120 -160 -170
-361 -170 l-108 0 0 194 0 193 90 85 c65 61 89 90 84 102 -11 29 -38 17 -107
-45 l-67 -61 0 110 c0 85 -3 112 -15 122 -12 10 -18 10 -30 0 -12 -10 -15 -47
-15 -216 0 -112 -3 -204 -7 -204 -3 0 -34 27 -69 60 -66 64 -75 68 -93 46 -17
-20 -7 -34 85 -116 l83 -75 1 -98 0 -98 -47 3 c-46 3 -48 4 -54 38 -7 44 -20
68 -53 99 -22 21 -26 33 -26 83 0 32 -6 74 -14 93 -22 52 -91 120 -145 143
l-48 21 1 113 c1 97 4 119 24 155 59 111 162 185 297 213 60 12 93 11 166 -4z
m-647 -560 c-53 -95 -40 -231 31 -313 49 -57 44 -72 -10 -27 -36 29 -48 34
-58 25 -9 -10 1 -23 46 -64 l58 -52 -1 -62 0 -63 -82 0 c-104 0 -148 12 -192
53 -48 46 -63 106 -41 163 9 24 29 54 45 68 27 22 29 29 29 89 -1 77 23 130
78 176 31 26 112 63 121 56 1 -1 -9 -23 -24 -49z m207 24 c83 -43 137 -140
125 -226 -5 -36 -2 -44 25 -70 36 -34 59 -75 59 -105 0 -21 -3 -22 -87 -17
-92 5 -176 33 -208 67 -14 17 -12 21 40 65 51 44 70 76 44 76 -6 0 -31 -16
-55 -36 l-44 -36 0 69 c0 75 -5 89 -27 72 -8 -8 -13 -36 -14 -83 l-1 -71 -19
40 c-22 48 -25 141 -6 188 8 18 26 47 42 65 24 29 32 32 59 26 17 -3 47 -15
67 -24z m97 -468 c101 -5 109 -12 65 -55 -44 -41 -94 -57 -183 -57 l-80 0 0
84 0 83 53 -25 c41 -20 72 -27 145 -30z m242 -21 c0 -10 -9 -21 -21 -24 -11
-3 -23 -15 -26 -26 -4 -17 -9 -19 -24 -11 -14 8 -23 6 -39 -10 -14 -14 -28
-19 -41 -15 -20 7 -20 7 4 33 13 15 30 37 36 50 10 18 20 22 61 22 42 0 50 -3
50 -19z m-205 -133 c0 -37 -10 -48 -42 -48 -16 0 -22 7 -25 28 -2 22 2 29 27
39 17 6 32 12 35 12 3 1 5 -14 5 -31z"/>
<path d="M2388 2373 c-46 -54 -95 -114 -110 -133 -14 -19 -34 -44 -45 -55 -10
-11 -84 -101 -163 -199 -80 -99 -160 -196 -178 -215 l-32 -36 -20 23 c-10 13
-51 79 -90 147 -39 69 -75 127 -79 129 -14 9 -91 -38 -135 -83 l-45 -46 64
-90 c114 -159 237 -298 272 -308 64 -19 102 6 204 133 208 258 429 482 692
699 42 35 74 67 71 72 -3 5 -24 9 -47 9 -35 0 -114 15 -253 47 -17 4 -38 -15
-106 -94z"/>
</g>
</svg>
